# Blender v2.77 (sub 0) OBJ File: ''
# www.blender.org
o pin
v 0.890954 -0.000034 -1.044501
v 1.086044 -0.000034 -1.025286
v 1.273637 -0.000034 -0.968380
v 1.446524 -0.000034 -0.875970
v 1.598061 -0.000034 -0.751607
v 1.722424 -0.000034 -0.600071
v 1.814833 -0.000034 -0.427184
v 1.871739 -0.000034 -0.239591
v 1.890954 -0.000034 -0.044501
v 0.890954 1.999966 -0.044501
v 1.871739 -0.000034 0.150590
v 1.814833 -0.000034 0.338183
v 1.722424 -0.000034 0.511070
v 1.598061 -0.000034 0.662606
v 1.446524 -0.000034 0.786969
v 1.273637 -0.000034 0.879379
v 1.086044 -0.000034 0.936285
v 0.890954 -0.000034 0.955499
v 0.695863 -0.000034 0.936285
v 0.508270 -0.000034 0.879379
v 0.335383 -0.000034 0.786969
v 0.183847 -0.000034 0.662606
v 0.059484 -0.000034 0.511069
v -0.032926 -0.000034 0.338182
v -0.089832 -0.000034 0.150589
v -0.109046 -0.000034 -0.044502
v -0.089831 -0.000034 -0.239592
v -0.032925 -0.000034 -0.427185
v 0.059485 -0.000034 -0.600072
v 0.183848 -0.000034 -0.751608
v 0.335385 -0.000034 -0.875971
v 0.508272 -0.000034 -0.968381
v 0.695865 -0.000034 -1.025286
vn 0.0000 -0.5033 -0.8641
vn 0.0000 1.0000 0.0000
vn 0.1686 -0.5033 -0.8475
vn 0.3307 -0.5033 -0.7983
vn 0.4801 -0.5033 -0.7185
vn 0.6110 -0.5033 -0.6110
vn 0.7185 -0.5033 -0.4801
vn 0.7983 -0.5033 -0.3307
vn 0.8475 -0.5033 -0.1686
vn 0.8641 -0.5033 0.0000
vn 0.8475 -0.5033 0.1686
vn 0.7983 -0.5033 0.3307
vn 0.7185 -0.5033 0.4801
vn 0.6110 -0.5033 0.6110
vn 0.4801 -0.5033 0.7185
vn 0.3307 -0.5033 0.7983
vn 0.1686 -0.5033 0.8475
vn 0.0000 -0.5033 0.8641
vn -0.1686 -0.5033 0.8475
vn -0.3307 -0.5033 0.7983
vn -0.4801 -0.5033 0.7185
vn -0.6110 -0.5033 0.6110
vn -0.7185 -0.5033 0.4801
vn -0.7983 -0.5033 0.3307
vn -0.8475 -0.5033 0.1686
vn -0.8641 -0.5033 0.0000
vn -0.8475 -0.5033 -0.1686
vn -0.7983 -0.5033 -0.3307
vn -0.7185 -0.5033 -0.4801
vn -0.6110 -0.5033 -0.6110
vn -0.4801 -0.5033 -0.7185
vn -0.3307 -0.5033 -0.7983
vn -0.1686 -0.5033 -0.8475
s 1
f 1//1 10//2 2//3
f 2//3 10//2 3//4
f 3//4 10//2 4//5
f 4//5 10//2 5//6
f 5//6 10//2 6//7
f 6//7 10//2 7//8
f 7//8 10//2 8//9
f 8//9 10//2 9//10
f 9//10 10//2 11//11
f 11//11 10//2 12//12
f 12//12 10//2 13//13
f 13//13 10//2 14//14
f 14//14 10//2 15//15
f 15//15 10//2 16//16
f 16//16 10//2 17//17
f 17//17 10//2 18//18
f 18//18 10//2 19//19
f 19//19 10//2 20//20
f 20//20 10//2 21//21
f 21//21 10//2 22//22
f 22//22 10//2 23//23
f 23//23 10//2 24//24
f 24//24 10//2 25//25
f 25//25 10//2 26//26
f 26//26 10//2 27//27
f 27//27 10//2 28//28
f 28//28 10//2 29//29
f 29//29 10//2 30//30
f 30//30 10//2 31//31
f 31//31 10//2 32//32
f 32//32 10//2 33//33
f 33//33 10//2 1//1
f 17//17 25//25 33//33
f 33//33 1//1 2//3
f 2//3 3//4 4//5
f 4//5 5//6 8//9
f 6//7 7//8 8//9
f 8//9 9//10 11//11
f 11//11 12//12 8//9
f 13//13 14//14 17//17
f 15//15 16//16 17//17
f 17//17 18//18 19//19
f 19//19 20//20 17//17
f 21//21 22//22 23//23
f 23//23 24//24 25//25
f 25//25 26//26 27//27
f 27//27 28//28 29//29
f 29//29 30//30 33//33
f 31//31 32//32 33//33
f 33//33 2//3 8//9
f 5//6 6//7 8//9
f 8//9 12//12 13//13
f 14//14 15//15 17//17
f 17//17 20//20 21//21
f 21//21 23//23 25//25
f 25//25 27//27 33//33
f 30//30 31//31 33//33
f 2//3 4//5 8//9
f 8//9 13//13 17//17
f 17//17 21//21 25//25
f 27//27 29//29 33//33
f 33//33 8//9 17//17
